# xmcd
#
# Track frame offsets:
#	150
#	22708
#	46976
#	62853
#	83458
#	106672
#	129407
#	150150
#	172568
#	188385
#	217164
#
# Disc length: 3169 seconds
#
# Revision: 1
# Processed by: cddbd v1.5.2PL0 Copyright (c) Steve Scherf et al.
# Submitted via: audiograbber 1.83.01
#
DISCID=6f0c5f0b
DTITLE=Chris Daniels and BMaster - We'll Meet Again
DYEAR=2009
DGENRE=
TTITLE0=Gimme What You Got
TTITLE1=You Put the Hurt on Me
TTITLE2=Jump
TTITLE3=In the Night
TTITLE4=Don't Change Horses (In the Middle of a Stream)
TTITLE5=American Tragedy
TTITLE6=The Spark
TTITLE7=I Like Your Shoes
TTITLE8=Howlin' at the Moon
TTITLE9=Won't Be Your Fool
TTITLE10=3 Straight Days of Rain
EXTD=
EXTT0=
EXTT1=
EXTT2=
EXTT3=
EXTT4=
EXTT5=
EXTT6=
EXTT7=
EXTT8=
EXTT9=
EXTT10=
PLAYORDER=
